<?xml version="1.0" standalone="no"?>
<!DOCTYPE svg PUBLIC "-//W3C//DTD SVG 20010904//EN"
 "http://www.w3.org/TR/2001/REC-SVG-20010904/DTD/svg10.dtd">
<svg version="1.0" xmlns="http://www.w3.org/2000/svg"
 width="1350.000000pt" height="1350.000000pt" viewBox="0 0 1350.000000 1350.000000"
 preserveAspectRatio="xMidYMid meet">
<metadata>
Created by potrace 1.10, written by Peter Selinger 2001-2011
</metadata>
<g transform="translate(0.000000,1350.000000) scale(0.100000,-0.100000)"
fill="#fffafa" stroke="none">
<path d="M2379 8246 c-3 -3 -28 -8 -56 -10 -49 -5 -210 -52 -228 -68 -5 -4
-19 -8 -31 -8 -12 0 -27 -7 -34 -15 -7 -8 -21 -15 -31 -15 -9 0 -24 -7 -33
-15 -8 -8 -20 -15 -27 -15 -6 0 -34 -13 -61 -30 -26 -16 -52 -30 -56 -30 -4 0
-17 -7 -27 -15 -22 -17 -66 -41 -195 -105 -47 -23 -107 -53 -135 -67 -27 -13
-68 -28 -90 -33 -75 -17 -140 -35 -152 -43 -8 -5 -13 -32 -13 -71 0 -83 -3
-83 173 -48 23 5 60 17 82 27 22 10 54 24 70 31 55 24 160 74 175 84 40 25
233 130 250 135 11 4 20 11 20 16 0 5 8 9 17 9 9 0 24 6 32 14 17 15 141 62
201 75 19 5 47 15 62 23 41 22 361 18 387 -6 9 -9 25 -16 34 -16 18 0 148 -59
157 -71 3 -4 28 -22 55 -41 76 -51 92 -66 273 -256 13 -13 46 -54 74 -91 29
-36 54 -68 57 -71 13 -11 100 -147 121 -189 12 -25 29 -51 36 -59 8 -7 14 -18
14 -24 0 -6 13 -39 29 -72 50 -108 61 -134 61 -149 0 -9 4 -18 9 -21 5 -4 12
-30 16 -59 4 -28 12 -60 17 -71 10 -18 18 -62 39 -201 16 -105 5 -288 -21
-355 -12 -30 -25 -64 -28 -75 -15 -45 -92 -145 -171 -222 -46 -46 -89 -83 -95
-83 -7 0 -21 -7 -31 -15 -11 -8 -51 -38 -90 -67 -91 -67 -201 -181 -245 -253
-19 -31 -50 -76 -67 -100 -18 -24 -33 -49 -33 -56 0 -6 -8 -18 -17 -25 -17
-11 -16 -13 10 -23 35 -14 107 -14 140 -2 16 6 28 21 32 40 4 17 10 31 15 31
4 0 19 19 33 43 46 77 123 145 331 294 55 40 189 174 235 236 50 68 98 158
106 199 4 18 14 49 23 68 24 51 24 475 0 512 -9 13 -21 51 -26 84 -17 95 -30
152 -41 171 -28 52 -51 105 -51 116 0 7 -14 39 -31 72 -18 33 -45 87 -62 120
-96 189 -336 485 -504 621 -26 21 -59 49 -73 61 -14 13 -29 23 -34 23 -5 0
-17 6 -25 14 -38 33 -148 84 -261 122 -46 15 -300 32 -311 20z"/>
<path d="M5813 8208 c-67 -3 -130 -11 -142 -17 -11 -6 -33 -11 -48 -11 -16 0
-38 -7 -49 -15 -10 -8 -27 -15 -36 -15 -22 0 -137 -59 -160 -82 -10 -10 -22
-18 -28 -18 -17 0 -99 -91 -143 -159 -41 -61 -66 -116 -98 -216 -8 -25 -12
-93 -12 -185 0 -122 4 -156 22 -212 59 -177 209 -318 431 -403 93 -36 117 -44
185 -63 39 -11 109 -32 156 -46 47 -14 91 -26 97 -26 7 0 20 -4 30 -9 9 -5 49
-19 87 -32 98 -32 143 -56 193 -103 69 -65 82 -99 82 -211 0 -107 -9 -133 -68
-200 -76 -86 -199 -128 -377 -129 -55 -1 -127 5 -160 13 -80 18 -181 67 -227
109 -43 41 -98 141 -98 180 0 15 -3 37 -6 50 l-6 22 -217 -2 -216 -3 -2 -60
c-1 -35 4 -72 13 -89 8 -16 14 -39 14 -51 0 -43 98 -218 158 -281 88 -95 139
-130 294 -205 43 -21 228 -60 338 -71 105 -11 140 -10 253 5 134 17 284 51
302 68 5 5 15 9 23 9 8 0 54 24 101 54 160 102 255 227 310 410 17 55 21 95
21 210 0 155 -14 218 -75 334 -35 67 -166 199 -231 232 -27 14 -53 31 -57 38
-4 6 -18 12 -30 12 -12 0 -31 7 -41 15 -11 8 -30 15 -42 15 -12 0 -27 7 -34
15 -7 8 -19 15 -27 15 -9 0 -36 7 -62 15 -25 8 -73 22 -106 31 -476 125 -585
197 -585 387 0 67 4 82 31 129 35 60 55 79 119 112 72 38 124 47 257 47 111 0
131 -2 195 -27 39 -15 88 -42 109 -61 43 -39 85 -119 95 -182 4 -23 10 -43 13
-46 6 -3 387 -9 430 -6 10 1 12 13 6 59 -8 72 -35 184 -46 196 -5 6 -9 17 -9
26 0 20 -96 167 -130 199 -46 43 -134 106 -175 125 -22 11 -52 25 -67 33 -14
7 -35 13 -46 13 -11 0 -25 6 -31 14 -7 8 -31 16 -54 19 -23 3 -67 10 -97 15
-78 15 -186 18 -327 10z"/>
<path d="M10822 8209 c-29 -5 -62 -14 -72 -19 -10 -6 -28 -10 -39 -10 -11 0
-35 -6 -53 -14 -18 -8 -53 -22 -78 -31 -25 -9 -52 -21 -60 -26 -8 -5 -25 -13
-37 -19 -97 -42 -338 -252 -378 -330 -9 -17 -20 -30 -25 -30 -6 0 -10 -5 -10
-11 0 -6 -13 -30 -28 -53 -53 -78 -133 -270 -153 -366 -52 -251 -53 -439 -3
-705 12 -66 86 -266 120 -323 102 -176 197 -286 329 -383 84 -61 89 -64 190
-113 276 -135 625 -153 935 -50 231 78 433 234 576 446 79 116 164 314 164
379 0 14 6 31 13 37 6 7 15 45 19 85 4 40 12 114 19 165 8 71 8 116 -1 190 -6
53 -15 126 -19 162 -5 36 -13 79 -19 95 -26 75 -42 134 -42 153 0 12 -4 24
-10 27 -5 3 -14 24 -20 45 -6 22 -15 40 -19 40 -5 0 -12 11 -15 25 -7 29 -74
141 -119 200 -32 42 -212 225 -221 225 -2 0 -33 19 -68 43 -60 40 -97 60 -170
91 -18 7 -50 21 -71 30 -21 9 -45 16 -55 16 -9 0 -37 8 -62 17 -35 13 -90 17
-255 19 -115 2 -234 -1 -263 -7z m409 -409 c213 -56 381 -200 474 -407 14 -32
30 -66 36 -75 5 -10 9 -27 9 -39 0 -11 6 -35 14 -52 20 -47 41 -199 40 -297 0
-88 -19 -243 -33 -270 -5 -9 -12 -31 -15 -50 -13 -62 -81 -203 -125 -258 -74
-94 -195 -191 -281 -226 -25 -10 -56 -23 -70 -29 -72 -30 -247 -44 -345 -27
-156 27 -290 96 -391 202 -151 159 -205 283 -245 571 -12 88 -3 225 23 332 5
22 12 55 15 73 3 18 9 35 14 38 5 3 9 13 9 22 0 62 138 272 229 350 65 55 180
116 254 136 33 8 62 17 65 20 3 3 60 6 127 6 88 0 141 -5 196 -20z"/>
<path d="M7175 8171 c-6 -6 -9 -452 -7 -1230 l2 -1221 220 0 220 0 -2 1228 -3
1227 -210 3 c-127 1 -214 -1 -220 -7z"/>
<path d="M7977 8168 c-3 -10 -1 -350 2 -400 1 -5 148 -8 329 -8 180 0 333 -4
339 -8 10 -6 13 -225 15 -1018 l3 -1009 220 0 220 0 5 1015 5 1015 330 5 330
5 0 205 0 205 -896 3 c-712 2 -898 0 -902 -10z"/>
<path d="M2305 7661 c-11 -5 -36 -10 -55 -10 -59 -2 -206 -55 -300 -110 -8 -5
-27 -14 -42 -21 -15 -7 -37 -21 -47 -32 -11 -10 -24 -18 -28 -18 -9 0 -23 -9
-218 -141 -142 -96 -254 -150 -340 -164 -58 -10 -65 -19 -65 -90 0 -48 4 -64
16 -69 26 -10 57 -7 88 9 15 8 41 15 57 15 24 0 104 33 119 49 3 4 27 17 54
31 27 14 105 62 173 108 68 45 126 82 130 82 4 0 16 9 27 20 32 29 192 115
281 149 52 21 167 41 228 41 68 0 163 -20 227 -48 128 -55 270 -191 367 -351
45 -74 103 -203 103 -229 0 -9 7 -26 15 -36 8 -11 15 -34 15 -51 0 -17 5 -36
10 -41 6 -6 12 -60 13 -120 1 -104 0 -112 -30 -175 -38 -79 -109 -160 -194
-220 -244 -176 -350 -277 -477 -454 -12 -18 -39 -68 -62 -115 -13 -25 -26 -53
-31 -62 -5 -10 -9 -23 -9 -31 0 -7 -9 -29 -20 -50 -11 -20 -20 -45 -20 -55 0
-10 -7 -28 -16 -40 -9 -13 -14 -26 -11 -28 9 -9 115 -17 141 -10 20 5 26 13
26 33 0 14 11 50 25 79 14 30 28 67 31 84 4 16 10 30 14 30 5 0 13 12 19 28
27 69 154 216 263 304 18 15 51 42 73 61 22 19 69 54 105 78 86 58 239 214
247 251 3 15 9 28 14 28 5 0 9 10 9 21 0 12 9 37 21 55 18 30 21 49 21 182 0
145 -7 202 -22 202 -4 0 -11 20 -14 45 -4 24 -11 47 -17 50 -5 4 -9 16 -9 29
0 56 -146 306 -246 420 -140 161 -281 248 -449 278 -79 14 -188 18 -210 9z"/>
<path d="M2195 7224 c-16 -3 -39 -9 -50 -14 -11 -5 -46 -18 -77 -29 -57 -20
-141 -72 -228 -140 -62 -49 -259 -251 -266 -273 -3 -10 -9 -18 -14 -18 -5 0
-25 -28 -46 -62 -21 -35 -41 -65 -45 -68 -3 -3 -16 -27 -28 -55 -12 -27 -26
-58 -31 -67 -6 -10 -10 -23 -10 -28 0 -6 -8 -30 -19 -53 -34 -78 -34 -376 0
-438 43 -76 82 -129 116 -154 21 -16 40 -32 43 -35 16 -22 129 -58 208 -67 90
-10 247 62 333 154 32 34 97 115 154 191 26 34 143 149 186 182 18 14 51 36
74 50 99 59 185 150 242 258 21 39 23 56 23 178 l0 135 -36 67 c-47 87 -55 97
-115 159 -28 29 -76 63 -107 78 -31 14 -64 30 -73 35 -19 10 -190 20 -234 14z
m203 -174 c9 -5 34 -17 55 -26 46 -20 118 -98 148 -161 18 -37 23 -65 23 -129
1 -45 -4 -87 -10 -95 -6 -8 -14 -25 -17 -39 -7 -28 -89 -115 -128 -136 -133
-69 -253 -181 -410 -384 -83 -108 -143 -157 -221 -185 -56 -19 -91 -18 -157 4
-92 32 -162 105 -176 186 -2 11 -9 42 -15 70 -7 35 -7 67 1 110 14 79 39 164
50 171 5 3 9 13 9 23 0 10 7 24 15 31 8 7 15 19 15 26 0 14 44 82 104 159 48
62 215 235 228 235 4 0 22 13 40 29 18 16 52 39 76 51 23 12 45 26 48 31 3 5
15 9 27 9 12 1 33 7 47 15 29 17 220 21 248 5z"/>
</g>
</svg>
